<mxfile host="app.diagrams.net" modified="2020-12-01T15:57:01.689Z" agent="5.0 (Windows)" etag="7NucArkIYAFqhLD3FmWA" version="13.10.5" type="github">
  <diagram id="C5RBs43oDa-KdzZeNtuy" name="Page-1">
    <mxGraphModel dx="1038" dy="1716" grid="1" gridSize="10" guides="1" tooltips="1" connect="1" arrows="1" fold="1" page="1" pageScale="1" pageWidth="827" pageHeight="1169" math="0" shadow="0">
      <root>
        <mxCell id="WIyWlLk6GJQsqaUBKTNV-0" />
        <mxCell id="WIyWlLk6GJQsqaUBKTNV-1" parent="WIyWlLk6GJQsqaUBKTNV-0" />
        <mxCell id="ywyOdryEDf6jPD3PKHf5-73" value="" style="rounded=0;whiteSpace=wrap;html=1;fillColor=#e1d5e7;strokeColor=#9673a6;" vertex="1" parent="WIyWlLk6GJQsqaUBKTNV-1">
          <mxGeometry y="660" width="860" height="650" as="geometry" />
        </mxCell>
        <mxCell id="ywyOdryEDf6jPD3PKHf5-72" value="" style="rounded=0;whiteSpace=wrap;html=1;fillColor=#dae8fc;strokeColor=#6c8ebf;" vertex="1" parent="WIyWlLk6GJQsqaUBKTNV-1">
          <mxGeometry x="260" y="340" width="480" height="320" as="geometry" />
        </mxCell>
        <mxCell id="ywyOdryEDf6jPD3PKHf5-71" value="" style="rounded=0;whiteSpace=wrap;html=1;fillColor=#fff2cc;strokeColor=#d6b656;" vertex="1" parent="WIyWlLk6GJQsqaUBKTNV-1">
          <mxGeometry x="75" y="340" width="185" height="320" as="geometry" />
        </mxCell>
        <mxCell id="ywyOdryEDf6jPD3PKHf5-67" value="" style="rounded=0;whiteSpace=wrap;html=1;fillColor=#d5e8d4;strokeColor=#82b366;" vertex="1" parent="WIyWlLk6GJQsqaUBKTNV-1">
          <mxGeometry x="130" y="-200" width="180" height="540" as="geometry" />
        </mxCell>
        <mxCell id="ywyOdryEDf6jPD3PKHf5-2" style="edgeStyle=orthogonalEdgeStyle;rounded=0;orthogonalLoop=1;jettySize=auto;html=1;" edge="1" parent="WIyWlLk6GJQsqaUBKTNV-1" source="WIyWlLk6GJQsqaUBKTNV-3" target="ywyOdryEDf6jPD3PKHf5-0">
          <mxGeometry relative="1" as="geometry" />
        </mxCell>
        <mxCell id="WIyWlLk6GJQsqaUBKTNV-3" value="Start" style="rounded=1;whiteSpace=wrap;html=1;fontSize=12;glass=0;strokeWidth=1;shadow=0;" parent="WIyWlLk6GJQsqaUBKTNV-1" vertex="1">
          <mxGeometry x="170" y="-190" width="100" height="30" as="geometry" />
        </mxCell>
        <mxCell id="ywyOdryEDf6jPD3PKHf5-64" style="edgeStyle=orthogonalEdgeStyle;rounded=0;orthogonalLoop=1;jettySize=auto;html=1;entryX=0.5;entryY=0;entryDx=0;entryDy=0;" edge="1" parent="WIyWlLk6GJQsqaUBKTNV-1" source="ywyOdryEDf6jPD3PKHf5-0" target="ywyOdryEDf6jPD3PKHf5-61">
          <mxGeometry relative="1" as="geometry" />
        </mxCell>
        <mxCell id="ywyOdryEDf6jPD3PKHf5-0" value="Init Data" style="rounded=1;whiteSpace=wrap;html=1;" vertex="1" parent="WIyWlLk6GJQsqaUBKTNV-1">
          <mxGeometry x="160" y="-140" width="120" height="60" as="geometry" />
        </mxCell>
        <mxCell id="ywyOdryEDf6jPD3PKHf5-50" style="edgeStyle=orthogonalEdgeStyle;rounded=0;orthogonalLoop=1;jettySize=auto;html=1;" edge="1" parent="WIyWlLk6GJQsqaUBKTNV-1" source="ywyOdryEDf6jPD3PKHf5-1" target="ywyOdryEDf6jPD3PKHf5-4">
          <mxGeometry relative="1" as="geometry" />
        </mxCell>
        <mxCell id="ywyOdryEDf6jPD3PKHf5-1" value="Sign in" style="rounded=1;whiteSpace=wrap;html=1;" vertex="1" parent="WIyWlLk6GJQsqaUBKTNV-1">
          <mxGeometry x="160" y="110" width="120" height="60" as="geometry" />
        </mxCell>
        <mxCell id="ywyOdryEDf6jPD3PKHf5-51" style="edgeStyle=orthogonalEdgeStyle;rounded=0;orthogonalLoop=1;jettySize=auto;html=1;entryX=0.5;entryY=0;entryDx=0;entryDy=0;" edge="1" parent="WIyWlLk6GJQsqaUBKTNV-1" source="ywyOdryEDf6jPD3PKHf5-4" target="ywyOdryEDf6jPD3PKHf5-5">
          <mxGeometry relative="1" as="geometry" />
        </mxCell>
        <mxCell id="ywyOdryEDf6jPD3PKHf5-4" value="Hover over order tab" style="rounded=1;whiteSpace=wrap;html=1;" vertex="1" parent="WIyWlLk6GJQsqaUBKTNV-1">
          <mxGeometry x="160" y="190" width="120" height="60" as="geometry" />
        </mxCell>
        <mxCell id="ywyOdryEDf6jPD3PKHf5-55" style="edgeStyle=orthogonalEdgeStyle;rounded=0;orthogonalLoop=1;jettySize=auto;html=1;entryX=0.5;entryY=0;entryDx=0;entryDy=0;" edge="1" parent="WIyWlLk6GJQsqaUBKTNV-1" source="ywyOdryEDf6jPD3PKHf5-5" target="ywyOdryEDf6jPD3PKHf5-7">
          <mxGeometry relative="1" as="geometry" />
        </mxCell>
        <mxCell id="ywyOdryEDf6jPD3PKHf5-5" value="Click Quick Order" style="rounded=1;whiteSpace=wrap;html=1;" vertex="1" parent="WIyWlLk6GJQsqaUBKTNV-1">
          <mxGeometry x="160" y="270" width="120" height="60" as="geometry" />
        </mxCell>
        <mxCell id="ywyOdryEDf6jPD3PKHf5-13" style="edgeStyle=orthogonalEdgeStyle;rounded=0;orthogonalLoop=1;jettySize=auto;html=1;entryX=0;entryY=0.5;entryDx=0;entryDy=0;" edge="1" parent="WIyWlLk6GJQsqaUBKTNV-1" source="ywyOdryEDf6jPD3PKHf5-6" target="ywyOdryEDf6jPD3PKHf5-10">
          <mxGeometry relative="1" as="geometry" />
        </mxCell>
        <mxCell id="ywyOdryEDf6jPD3PKHf5-6" value="Find Item in list" style="rounded=1;whiteSpace=wrap;html=1;" vertex="1" parent="WIyWlLk6GJQsqaUBKTNV-1">
          <mxGeometry x="280" y="570" width="120" height="60" as="geometry" />
        </mxCell>
        <mxCell id="ywyOdryEDf6jPD3PKHf5-25" style="edgeStyle=orthogonalEdgeStyle;rounded=0;orthogonalLoop=1;jettySize=auto;html=1;entryX=0.5;entryY=0;entryDx=0;entryDy=0;" edge="1" parent="WIyWlLk6GJQsqaUBKTNV-1" source="ywyOdryEDf6jPD3PKHf5-7" target="ywyOdryEDf6jPD3PKHf5-8">
          <mxGeometry relative="1" as="geometry" />
        </mxCell>
        <mxCell id="ywyOdryEDf6jPD3PKHf5-7" value="Get Item from Read data" style="rounded=1;whiteSpace=wrap;html=1;" vertex="1" parent="WIyWlLk6GJQsqaUBKTNV-1">
          <mxGeometry x="110" y="418.75" width="120" height="60" as="geometry" />
        </mxCell>
        <mxCell id="ywyOdryEDf6jPD3PKHf5-9" style="edgeStyle=orthogonalEdgeStyle;rounded=0;orthogonalLoop=1;jettySize=auto;html=1;entryX=0;entryY=0.5;entryDx=0;entryDy=0;" edge="1" parent="WIyWlLk6GJQsqaUBKTNV-1" source="ywyOdryEDf6jPD3PKHf5-8" target="ywyOdryEDf6jPD3PKHf5-6">
          <mxGeometry relative="1" as="geometry" />
        </mxCell>
        <mxCell id="ywyOdryEDf6jPD3PKHf5-17" value="Yes" style="edgeLabel;html=1;align=center;verticalAlign=middle;resizable=0;points=[];" vertex="1" connectable="0" parent="ywyOdryEDf6jPD3PKHf5-9">
          <mxGeometry x="0.25" y="1" relative="1" as="geometry">
            <mxPoint x="-20" as="offset" />
          </mxGeometry>
        </mxCell>
        <mxCell id="ywyOdryEDf6jPD3PKHf5-27" style="edgeStyle=orthogonalEdgeStyle;rounded=0;orthogonalLoop=1;jettySize=auto;html=1;entryX=0.5;entryY=0;entryDx=0;entryDy=0;" edge="1" parent="WIyWlLk6GJQsqaUBKTNV-1" source="ywyOdryEDf6jPD3PKHf5-8" target="ywyOdryEDf6jPD3PKHf5-26">
          <mxGeometry relative="1" as="geometry" />
        </mxCell>
        <mxCell id="ywyOdryEDf6jPD3PKHf5-70" value="No" style="edgeLabel;html=1;align=center;verticalAlign=middle;resizable=0;points=[];" vertex="1" connectable="0" parent="ywyOdryEDf6jPD3PKHf5-27">
          <mxGeometry x="-0.3273" relative="1" as="geometry">
            <mxPoint as="offset" />
          </mxGeometry>
        </mxCell>
        <mxCell id="ywyOdryEDf6jPD3PKHf5-8" value="Item got" style="rhombus;whiteSpace=wrap;html=1;" vertex="1" parent="WIyWlLk6GJQsqaUBKTNV-1">
          <mxGeometry x="130" y="570" width="80" height="60" as="geometry" />
        </mxCell>
        <mxCell id="ywyOdryEDf6jPD3PKHf5-14" style="edgeStyle=orthogonalEdgeStyle;rounded=0;orthogonalLoop=1;jettySize=auto;html=1;" edge="1" parent="WIyWlLk6GJQsqaUBKTNV-1" source="ywyOdryEDf6jPD3PKHf5-10" target="ywyOdryEDf6jPD3PKHf5-11">
          <mxGeometry relative="1" as="geometry" />
        </mxCell>
        <mxCell id="ywyOdryEDf6jPD3PKHf5-10" value="Click quantity" style="rounded=1;whiteSpace=wrap;html=1;" vertex="1" parent="WIyWlLk6GJQsqaUBKTNV-1">
          <mxGeometry x="450" y="570" width="120" height="60" as="geometry" />
        </mxCell>
        <mxCell id="ywyOdryEDf6jPD3PKHf5-21" style="edgeStyle=orthogonalEdgeStyle;rounded=0;orthogonalLoop=1;jettySize=auto;html=1;entryX=1;entryY=0.5;entryDx=0;entryDy=0;" edge="1" parent="WIyWlLk6GJQsqaUBKTNV-1" target="ywyOdryEDf6jPD3PKHf5-19">
          <mxGeometry relative="1" as="geometry">
            <mxPoint x="660" y="580" as="sourcePoint" />
          </mxGeometry>
        </mxCell>
        <mxCell id="ywyOdryEDf6jPD3PKHf5-11" value="Type quantity value" style="rounded=1;whiteSpace=wrap;html=1;" vertex="1" parent="WIyWlLk6GJQsqaUBKTNV-1">
          <mxGeometry x="600" y="570" width="120" height="60" as="geometry" />
        </mxCell>
        <mxCell id="ywyOdryEDf6jPD3PKHf5-24" style="edgeStyle=orthogonalEdgeStyle;rounded=0;orthogonalLoop=1;jettySize=auto;html=1;entryX=1;entryY=0.5;entryDx=0;entryDy=0;" edge="1" parent="WIyWlLk6GJQsqaUBKTNV-1" source="ywyOdryEDf6jPD3PKHf5-12" target="ywyOdryEDf6jPD3PKHf5-7">
          <mxGeometry relative="1" as="geometry" />
        </mxCell>
        <mxCell id="ywyOdryEDf6jPD3PKHf5-12" value="Click Order button" style="rounded=1;whiteSpace=wrap;html=1;" vertex="1" parent="WIyWlLk6GJQsqaUBKTNV-1">
          <mxGeometry x="360" y="478.75" width="120" height="62.5" as="geometry" />
        </mxCell>
        <mxCell id="ywyOdryEDf6jPD3PKHf5-22" value="No" style="edgeStyle=orthogonalEdgeStyle;rounded=0;orthogonalLoop=1;jettySize=auto;html=1;entryX=1;entryY=0.5;entryDx=0;entryDy=0;" edge="1" parent="WIyWlLk6GJQsqaUBKTNV-1" source="ywyOdryEDf6jPD3PKHf5-19" target="ywyOdryEDf6jPD3PKHf5-12">
          <mxGeometry relative="1" as="geometry">
            <Array as="points">
              <mxPoint x="510" y="510" />
              <mxPoint x="510" y="510" />
            </Array>
          </mxGeometry>
        </mxCell>
        <mxCell id="ywyOdryEDf6jPD3PKHf5-53" style="edgeStyle=orthogonalEdgeStyle;rounded=0;orthogonalLoop=1;jettySize=auto;html=1;entryX=1;entryY=0.5;entryDx=0;entryDy=0;exitX=0.5;exitY=0;exitDx=0;exitDy=0;" edge="1" parent="WIyWlLk6GJQsqaUBKTNV-1" source="ywyOdryEDf6jPD3PKHf5-19" target="ywyOdryEDf6jPD3PKHf5-52">
          <mxGeometry relative="1" as="geometry" />
        </mxCell>
        <mxCell id="ywyOdryEDf6jPD3PKHf5-56" value="Yes" style="edgeLabel;html=1;align=center;verticalAlign=middle;resizable=0;points=[];" vertex="1" connectable="0" parent="ywyOdryEDf6jPD3PKHf5-53">
          <mxGeometry x="-0.3107" y="2" relative="1" as="geometry">
            <mxPoint as="offset" />
          </mxGeometry>
        </mxCell>
        <mxCell id="ywyOdryEDf6jPD3PKHf5-19" value="Is error (404)" style="rhombus;whiteSpace=wrap;html=1;" vertex="1" parent="WIyWlLk6GJQsqaUBKTNV-1">
          <mxGeometry x="540" y="470" width="80" height="80" as="geometry" />
        </mxCell>
        <mxCell id="ywyOdryEDf6jPD3PKHf5-57" style="edgeStyle=orthogonalEdgeStyle;rounded=0;orthogonalLoop=1;jettySize=auto;html=1;" edge="1" parent="WIyWlLk6GJQsqaUBKTNV-1" source="ywyOdryEDf6jPD3PKHf5-26" target="ywyOdryEDf6jPD3PKHf5-28">
          <mxGeometry relative="1" as="geometry" />
        </mxCell>
        <mxCell id="ywyOdryEDf6jPD3PKHf5-26" value="Click on cart icon" style="rounded=1;whiteSpace=wrap;html=1;" vertex="1" parent="WIyWlLk6GJQsqaUBKTNV-1">
          <mxGeometry x="20" y="720" width="120" height="60" as="geometry" />
        </mxCell>
        <mxCell id="ywyOdryEDf6jPD3PKHf5-58" style="edgeStyle=orthogonalEdgeStyle;rounded=0;orthogonalLoop=1;jettySize=auto;html=1;exitX=1;exitY=0.5;exitDx=0;exitDy=0;" edge="1" parent="WIyWlLk6GJQsqaUBKTNV-1" source="ywyOdryEDf6jPD3PKHf5-28" target="ywyOdryEDf6jPD3PKHf5-29">
          <mxGeometry relative="1" as="geometry" />
        </mxCell>
        <mxCell id="ywyOdryEDf6jPD3PKHf5-28" value="Click next" style="rounded=1;whiteSpace=wrap;html=1;" vertex="1" parent="WIyWlLk6GJQsqaUBKTNV-1">
          <mxGeometry x="190" y="720" width="120" height="60" as="geometry" />
        </mxCell>
        <mxCell id="ywyOdryEDf6jPD3PKHf5-59" style="edgeStyle=orthogonalEdgeStyle;rounded=0;orthogonalLoop=1;jettySize=auto;html=1;" edge="1" parent="WIyWlLk6GJQsqaUBKTNV-1" source="ywyOdryEDf6jPD3PKHf5-29" target="ywyOdryEDf6jPD3PKHf5-30">
          <mxGeometry relative="1" as="geometry" />
        </mxCell>
        <mxCell id="ywyOdryEDf6jPD3PKHf5-29" value="Fill in Address" style="rounded=1;whiteSpace=wrap;html=1;" vertex="1" parent="WIyWlLk6GJQsqaUBKTNV-1">
          <mxGeometry x="360" y="720" width="120" height="60" as="geometry" />
        </mxCell>
        <mxCell id="ywyOdryEDf6jPD3PKHf5-60" style="edgeStyle=orthogonalEdgeStyle;rounded=0;orthogonalLoop=1;jettySize=auto;html=1;" edge="1" parent="WIyWlLk6GJQsqaUBKTNV-1" source="ywyOdryEDf6jPD3PKHf5-30" target="ywyOdryEDf6jPD3PKHf5-31">
          <mxGeometry relative="1" as="geometry" />
        </mxCell>
        <mxCell id="ywyOdryEDf6jPD3PKHf5-30" value="Click next" style="rounded=1;whiteSpace=wrap;html=1;" vertex="1" parent="WIyWlLk6GJQsqaUBKTNV-1">
          <mxGeometry x="510" y="720" width="120" height="60" as="geometry" />
        </mxCell>
        <mxCell id="ywyOdryEDf6jPD3PKHf5-38" style="edgeStyle=orthogonalEdgeStyle;rounded=0;orthogonalLoop=1;jettySize=auto;html=1;exitX=0.5;exitY=1;exitDx=0;exitDy=0;" edge="1" parent="WIyWlLk6GJQsqaUBKTNV-1" source="ywyOdryEDf6jPD3PKHf5-31" target="ywyOdryEDf6jPD3PKHf5-33">
          <mxGeometry relative="1" as="geometry" />
        </mxCell>
        <mxCell id="ywyOdryEDf6jPD3PKHf5-31" value="Select Payment option" style="rounded=1;whiteSpace=wrap;html=1;" vertex="1" parent="WIyWlLk6GJQsqaUBKTNV-1">
          <mxGeometry x="650" y="720" width="120" height="60" as="geometry" />
        </mxCell>
        <mxCell id="ywyOdryEDf6jPD3PKHf5-36" style="edgeStyle=orthogonalEdgeStyle;rounded=0;orthogonalLoop=1;jettySize=auto;html=1;entryX=0.5;entryY=0;entryDx=0;entryDy=0;" edge="1" parent="WIyWlLk6GJQsqaUBKTNV-1" source="ywyOdryEDf6jPD3PKHf5-33" target="ywyOdryEDf6jPD3PKHf5-34">
          <mxGeometry relative="1" as="geometry" />
        </mxCell>
        <mxCell id="ywyOdryEDf6jPD3PKHf5-39" value="Credit Card" style="edgeLabel;html=1;align=center;verticalAlign=middle;resizable=0;points=[];" vertex="1" connectable="0" parent="ywyOdryEDf6jPD3PKHf5-36">
          <mxGeometry x="0.2043" y="1" relative="1" as="geometry">
            <mxPoint as="offset" />
          </mxGeometry>
        </mxCell>
        <mxCell id="ywyOdryEDf6jPD3PKHf5-37" style="edgeStyle=orthogonalEdgeStyle;rounded=0;orthogonalLoop=1;jettySize=auto;html=1;entryX=0.5;entryY=0;entryDx=0;entryDy=0;" edge="1" parent="WIyWlLk6GJQsqaUBKTNV-1" source="ywyOdryEDf6jPD3PKHf5-33" target="ywyOdryEDf6jPD3PKHf5-35">
          <mxGeometry relative="1" as="geometry" />
        </mxCell>
        <mxCell id="ywyOdryEDf6jPD3PKHf5-40" value="Bill Me" style="edgeLabel;html=1;align=center;verticalAlign=middle;resizable=0;points=[];" vertex="1" connectable="0" parent="ywyOdryEDf6jPD3PKHf5-37">
          <mxGeometry x="0.24" y="-3" relative="1" as="geometry">
            <mxPoint as="offset" />
          </mxGeometry>
        </mxCell>
        <mxCell id="ywyOdryEDf6jPD3PKHf5-33" value="Which type" style="rhombus;whiteSpace=wrap;html=1;" vertex="1" parent="WIyWlLk6GJQsqaUBKTNV-1">
          <mxGeometry x="380" y="810" width="80" height="80" as="geometry" />
        </mxCell>
        <mxCell id="ywyOdryEDf6jPD3PKHf5-42" style="edgeStyle=orthogonalEdgeStyle;rounded=0;orthogonalLoop=1;jettySize=auto;html=1;entryX=0.5;entryY=0;entryDx=0;entryDy=0;" edge="1" parent="WIyWlLk6GJQsqaUBKTNV-1" source="ywyOdryEDf6jPD3PKHf5-34" target="ywyOdryEDf6jPD3PKHf5-41">
          <mxGeometry relative="1" as="geometry" />
        </mxCell>
        <mxCell id="ywyOdryEDf6jPD3PKHf5-34" value="Fill in Card information" style="rounded=1;whiteSpace=wrap;html=1;" vertex="1" parent="WIyWlLk6GJQsqaUBKTNV-1">
          <mxGeometry x="500" y="890" width="120" height="60" as="geometry" />
        </mxCell>
        <mxCell id="ywyOdryEDf6jPD3PKHf5-43" style="edgeStyle=orthogonalEdgeStyle;rounded=0;orthogonalLoop=1;jettySize=auto;html=1;entryX=0.5;entryY=0;entryDx=0;entryDy=0;exitX=1;exitY=0.5;exitDx=0;exitDy=0;" edge="1" parent="WIyWlLk6GJQsqaUBKTNV-1" source="ywyOdryEDf6jPD3PKHf5-35" target="ywyOdryEDf6jPD3PKHf5-41">
          <mxGeometry relative="1" as="geometry" />
        </mxCell>
        <mxCell id="ywyOdryEDf6jPD3PKHf5-35" value="Put in &quot;Purchase Order Number&quot; Value" style="rounded=1;whiteSpace=wrap;html=1;" vertex="1" parent="WIyWlLk6GJQsqaUBKTNV-1">
          <mxGeometry x="220" y="890" width="120" height="60" as="geometry" />
        </mxCell>
        <mxCell id="ywyOdryEDf6jPD3PKHf5-45" style="edgeStyle=orthogonalEdgeStyle;rounded=0;orthogonalLoop=1;jettySize=auto;html=1;" edge="1" parent="WIyWlLk6GJQsqaUBKTNV-1" source="ywyOdryEDf6jPD3PKHf5-41" target="ywyOdryEDf6jPD3PKHf5-44">
          <mxGeometry relative="1" as="geometry" />
        </mxCell>
        <mxCell id="ywyOdryEDf6jPD3PKHf5-41" value="Capture Order Number" style="rounded=1;whiteSpace=wrap;html=1;" vertex="1" parent="WIyWlLk6GJQsqaUBKTNV-1">
          <mxGeometry x="360" y="970" width="120" height="60" as="geometry" />
        </mxCell>
        <mxCell id="ywyOdryEDf6jPD3PKHf5-47" style="edgeStyle=orthogonalEdgeStyle;rounded=0;orthogonalLoop=1;jettySize=auto;html=1;entryX=0.5;entryY=0;entryDx=0;entryDy=0;" edge="1" parent="WIyWlLk6GJQsqaUBKTNV-1" source="ywyOdryEDf6jPD3PKHf5-44" target="ywyOdryEDf6jPD3PKHf5-46">
          <mxGeometry relative="1" as="geometry" />
        </mxCell>
        <mxCell id="ywyOdryEDf6jPD3PKHf5-44" value="&lt;div&gt;Write to Data Sheet&lt;/div&gt;&lt;div&gt;w/ Order #, Product Names&lt;br&gt;&lt;/div&gt;" style="rounded=1;whiteSpace=wrap;html=1;" vertex="1" parent="WIyWlLk6GJQsqaUBKTNV-1">
          <mxGeometry x="360" y="1060" width="120" height="60" as="geometry" />
        </mxCell>
        <mxCell id="ywyOdryEDf6jPD3PKHf5-49" style="edgeStyle=orthogonalEdgeStyle;rounded=0;orthogonalLoop=1;jettySize=auto;html=1;" edge="1" parent="WIyWlLk6GJQsqaUBKTNV-1" source="ywyOdryEDf6jPD3PKHf5-46" target="ywyOdryEDf6jPD3PKHf5-48">
          <mxGeometry relative="1" as="geometry" />
        </mxCell>
        <mxCell id="ywyOdryEDf6jPD3PKHf5-46" value="Send Email w/ data attached" style="rounded=1;whiteSpace=wrap;html=1;" vertex="1" parent="WIyWlLk6GJQsqaUBKTNV-1">
          <mxGeometry x="360" y="1150" width="120" height="60" as="geometry" />
        </mxCell>
        <mxCell id="ywyOdryEDf6jPD3PKHf5-48" value="End" style="strokeWidth=2;html=1;shape=mxgraph.flowchart.terminator;whiteSpace=wrap;" vertex="1" parent="WIyWlLk6GJQsqaUBKTNV-1">
          <mxGeometry x="370" y="1240" width="100" height="60" as="geometry" />
        </mxCell>
        <mxCell id="ywyOdryEDf6jPD3PKHf5-54" style="edgeStyle=orthogonalEdgeStyle;rounded=0;orthogonalLoop=1;jettySize=auto;html=1;entryX=1;entryY=0.5;entryDx=0;entryDy=0;" edge="1" parent="WIyWlLk6GJQsqaUBKTNV-1" source="ywyOdryEDf6jPD3PKHf5-52" target="ywyOdryEDf6jPD3PKHf5-68">
          <mxGeometry relative="1" as="geometry" />
        </mxCell>
        <mxCell id="ywyOdryEDf6jPD3PKHf5-52" value="Log Error" style="rounded=1;whiteSpace=wrap;html=1;" vertex="1" parent="WIyWlLk6GJQsqaUBKTNV-1">
          <mxGeometry x="520" y="360" width="120" height="60" as="geometry" />
        </mxCell>
        <mxCell id="ywyOdryEDf6jPD3PKHf5-63" style="edgeStyle=orthogonalEdgeStyle;rounded=0;orthogonalLoop=1;jettySize=auto;html=1;" edge="1" parent="WIyWlLk6GJQsqaUBKTNV-1" source="ywyOdryEDf6jPD3PKHf5-61" target="ywyOdryEDf6jPD3PKHf5-62">
          <mxGeometry relative="1" as="geometry" />
        </mxCell>
        <mxCell id="ywyOdryEDf6jPD3PKHf5-61" value="Open Browser" style="rounded=1;whiteSpace=wrap;html=1;" vertex="1" parent="WIyWlLk6GJQsqaUBKTNV-1">
          <mxGeometry x="160" y="-60" width="120" height="60" as="geometry" />
        </mxCell>
        <mxCell id="ywyOdryEDf6jPD3PKHf5-65" style="edgeStyle=orthogonalEdgeStyle;rounded=0;orthogonalLoop=1;jettySize=auto;html=1;entryX=0.5;entryY=0;entryDx=0;entryDy=0;" edge="1" parent="WIyWlLk6GJQsqaUBKTNV-1" source="ywyOdryEDf6jPD3PKHf5-62" target="ywyOdryEDf6jPD3PKHf5-1">
          <mxGeometry relative="1" as="geometry" />
        </mxCell>
        <mxCell id="ywyOdryEDf6jPD3PKHf5-62" value="Navigate to openspan site" style="rounded=1;whiteSpace=wrap;html=1;" vertex="1" parent="WIyWlLk6GJQsqaUBKTNV-1">
          <mxGeometry x="160" y="30" width="120" height="60" as="geometry" />
        </mxCell>
        <mxCell id="ywyOdryEDf6jPD3PKHf5-69" style="edgeStyle=orthogonalEdgeStyle;rounded=0;orthogonalLoop=1;jettySize=auto;html=1;entryX=1;entryY=0.5;entryDx=0;entryDy=0;" edge="1" parent="WIyWlLk6GJQsqaUBKTNV-1" source="ywyOdryEDf6jPD3PKHf5-68" target="ywyOdryEDf6jPD3PKHf5-7">
          <mxGeometry relative="1" as="geometry" />
        </mxCell>
        <mxCell id="ywyOdryEDf6jPD3PKHf5-68" value="Return to Order page" style="rounded=1;whiteSpace=wrap;html=1;" vertex="1" parent="WIyWlLk6GJQsqaUBKTNV-1">
          <mxGeometry x="360" y="360" width="120" height="60" as="geometry" />
        </mxCell>
      </root>
    </mxGraphModel>
  </diagram>
</mxfile>
